<svg width="30" height="24" viewBox="0 0 30 24" fill="none" xmlns="http://www.w3.org/2000/svg">
<path d="M9.56061 24C20.5013 24 26.4871 14.7655 26.4871 6.75987C26.4871 6.50026 26.4814 6.23488 26.4701 5.97528C27.6345 5.11759 28.6394 4.05522 29.4375 2.83809C28.353 3.32952 27.2017 3.65047 26.0226 3.78997C27.264 3.03206 28.1936 1.84141 28.6389 0.438752C27.471 1.1437 26.1938 1.64098 24.8621 1.90927C23.9648 0.938173 22.7784 0.295188 21.4863 0.0797305C20.1942 -0.135727 18.8684 0.0883448 17.7139 0.717301C16.5594 1.34626 15.6405 2.34507 15.0992 3.55931C14.558 4.77355 14.4245 6.13559 14.7194 7.43484C12.3547 7.31397 10.0413 6.68829 7.92914 5.59835C5.81703 4.50842 3.95338 2.97856 2.459 1.10796C1.69948 2.44173 1.46707 4.02001 1.809 5.52204C2.15092 7.02407 3.04153 8.33714 4.29982 9.19439C3.35518 9.16384 2.43122 8.9048 1.6043 8.43865V8.51365C1.60345 9.91334 2.07853 11.2701 2.94879 12.3534C3.81905 13.4367 5.03077 14.1795 6.37797 14.4557C5.5029 14.6996 4.58448 14.7351 3.69377 14.5596C4.07392 15.7633 4.81357 16.8161 5.80947 17.5711C6.80538 18.3261 8.00785 18.7456 9.24908 18.771C7.14185 20.4569 4.53879 21.3713 1.85918 21.367C1.38397 21.3663 0.909232 21.3366 0.4375 21.2782C3.1597 23.057 6.32635 24.0017 9.56061 24Z" fill="#4160EA"/>
</svg>
